<svg width="20" height="19" viewBox="0 0 20 19" fill="none" xmlns="http://www.w3.org/2000/svg">
<path d="M4.44 2.33303C4.43974 2.86346 4.22877 3.37207 3.85351 3.74695C3.47825 4.12184 2.96944 4.3323 2.439 4.33203C1.90857 4.33177 1.39997 4.1208 1.02508 3.74554C0.650197 3.37028 0.439737 2.86146 0.440003 2.33103C0.440268 1.8006 0.651236 1.292 1.0265 0.917111C1.40176 0.542225 1.91057 0.331766 2.441 0.332032C2.97144 0.332297 3.48004 0.543265 3.85492 0.918525C4.22981 1.29379 4.44027 1.8026 4.44 2.33303ZM4.5 5.81303H0.500003V18.333H4.5V5.81303ZM10.82 5.81303H6.84V18.333H10.78V11.763C10.78 8.10303 15.55 7.76303 15.55 11.763V18.333H19.5V10.403C19.5 4.23303 12.44 4.46303 10.78 7.49303L10.82 5.81303Z" fill="white"/>
</svg>
