<svg width="21" height="21" viewBox="0 0 21 21" fill="none" xmlns="http://www.w3.org/2000/svg">
<path d="M11.528 0.334238C12.2578 0.331438 12.9875 0.338772 13.717 0.356238L13.911 0.363238C14.135 0.371238 14.356 0.381238 14.623 0.393238C15.687 0.443238 16.413 0.611238 17.05 0.858238C17.71 1.11224 18.266 1.45624 18.822 2.01224C19.3304 2.51184 19.7239 3.11618 19.975 3.78324C20.222 4.42024 20.39 5.14724 20.44 6.21124C20.452 6.47724 20.462 6.69924 20.47 6.92324L20.476 7.11724C20.4938 7.84643 20.5015 8.57583 20.499 9.30524L20.5 10.0512V11.3612C20.5025 12.091 20.4948 12.8207 20.477 13.5502L20.471 13.7442C20.463 13.9682 20.453 14.1892 20.441 14.4562C20.391 15.5202 20.221 16.2462 19.975 16.8832C19.7247 17.551 19.3311 18.1558 18.822 18.6552C18.322 19.1636 17.7173 19.557 17.05 19.8082C16.413 20.0552 15.687 20.2232 14.623 20.2732C14.356 20.2852 14.135 20.2952 13.911 20.3032L13.717 20.3092C12.9875 20.327 12.2578 20.3347 11.528 20.3322L10.782 20.3332H9.47303C8.74329 20.3357 8.01355 20.328 7.28403 20.3102L7.09003 20.3042C6.85264 20.2956 6.6153 20.2856 6.37803 20.2742C5.31403 20.2242 4.58803 20.0542 3.95003 19.8082C3.28271 19.5576 2.67827 19.1641 2.17903 18.6552C1.67007 18.1555 1.27625 17.5508 1.02503 16.8832C0.778028 16.2462 0.610028 15.5202 0.560028 14.4562C0.548891 14.219 0.53889 13.9816 0.530028 13.7442L0.525028 13.5502C0.506591 12.8207 0.498257 12.091 0.500028 11.3612V9.30524C0.497237 8.57584 0.504571 7.84643 0.522028 7.11724L0.529028 6.92324C0.537028 6.69924 0.547028 6.47724 0.559028 6.21124C0.609028 5.14624 0.777028 4.42124 1.02403 3.78324C1.2754 3.11586 1.66999 2.51168 2.18003 2.01324C2.67892 1.50399 3.28299 1.10981 3.95003 0.858238C4.58803 0.611238 5.31303 0.443238 6.37803 0.393238L7.09003 0.363238L7.28403 0.358238C8.01321 0.339811 8.74261 0.331477 9.47203 0.333238L11.528 0.334238ZM10.5 5.33424C9.83753 5.32487 9.17978 5.44726 8.565 5.69431C7.95022 5.94135 7.39067 6.30812 6.91887 6.77329C6.44707 7.23847 6.07243 7.79278 5.81671 8.404C5.561 9.01523 5.42932 9.67118 5.42932 10.3337C5.42932 10.9963 5.561 11.6523 5.81671 12.2635C6.07243 12.8747 6.44707 13.429 6.91887 13.8942C7.39067 14.3594 7.95022 14.7261 8.565 14.9732C9.17978 15.2202 9.83753 15.3426 10.5 15.3332C11.8261 15.3332 13.0979 14.8065 14.0356 13.8688C14.9732 12.9311 15.5 11.6593 15.5 10.3332C15.5 9.00716 14.9732 7.73539 14.0356 6.7977C13.0979 5.86002 11.8261 5.33424 10.5 5.33424ZM10.5 7.33424C10.8985 7.3269 11.2945 7.39904 11.6648 7.54645C12.0351 7.69386 12.3724 7.91358 12.6568 8.19278C12.9412 8.47199 13.1672 8.80507 13.3215 9.17258C13.4757 9.54009 13.5552 9.93465 13.5553 10.3332C13.5554 10.7318 13.476 11.1264 13.3219 11.494C13.1677 11.8615 12.9419 12.1947 12.6575 12.474C12.3732 12.7533 12.036 12.9731 11.6658 13.1206C11.2955 13.2682 10.8995 13.3404 10.501 13.3332C9.70538 13.3332 8.94232 13.0172 8.37971 12.4546C7.8171 11.892 7.50103 11.1289 7.50103 10.3332C7.50103 9.53759 7.8171 8.77453 8.37971 8.21192C8.94232 7.64931 9.70538 7.33324 10.501 7.33324L10.5 7.33424ZM15.75 3.83424C15.4274 3.84715 15.1223 3.98439 14.8986 4.21721C14.6749 4.45003 14.55 4.76037 14.55 5.08324C14.55 5.4061 14.6749 5.71645 14.8986 5.94927C15.1223 6.18209 15.4274 6.31933 15.75 6.33224C16.0815 6.33224 16.3995 6.20054 16.6339 5.96612C16.8683 5.7317 17 5.41376 17 5.08224C17 4.75072 16.8683 4.43278 16.6339 4.19835C16.3995 3.96393 16.0815 3.83224 15.75 3.83224V3.83424Z" fill="white"/>
</svg>
