<svg width="99" height="58" viewBox="0 0 99 58" fill="none" xmlns="http://www.w3.org/2000/svg">
<path d="M0.839914 56V0.520695H11.6318V56H0.839914ZM10.1118 32.8963V23.7764L32.3035 23.7004V32.8203L10.1118 32.8963ZM10.1118 9.64058V0.520695H33.3675V9.64058H10.1118ZM60.0337 57.444C56.487 57.444 53.3711 56.836 50.6858 55.62C48.0512 54.404 45.8472 52.7827 44.0739 50.7561C42.3512 48.6788 41.0339 46.3735 40.1219 43.8402C39.2606 41.3069 38.8299 38.7229 38.8299 36.0882V34.6443C38.8299 31.9083 39.2606 29.2737 40.1219 26.7404C41.0339 24.1564 42.3512 21.8764 44.0739 19.9005C45.8472 17.8738 48.0258 16.2778 50.6098 15.1125C53.1938 13.8965 56.1831 13.2885 59.5777 13.2885C64.0363 13.2885 67.7602 14.2765 70.7495 16.2525C73.7895 18.1778 76.0695 20.7364 77.5895 23.9284C79.1094 27.0697 79.8694 30.4643 79.8694 34.1123V37.9122H43.3139V31.4523H73.2575L69.9895 34.6443C69.9895 32.0096 69.6096 29.755 68.8496 27.8804C68.0896 26.0057 66.9243 24.5617 65.3536 23.5484C63.8336 22.5351 61.9083 22.0284 59.5777 22.0284C57.247 22.0284 55.2711 22.5604 53.6498 23.6244C52.0284 24.6884 50.7871 26.2337 49.9258 28.2603C49.1151 30.2363 48.7098 32.6176 48.7098 35.4043C48.7098 37.9882 49.1151 40.2935 49.9258 42.3202C50.7365 44.2961 51.9778 45.8668 53.6498 47.0321C55.3217 48.1468 57.4497 48.7041 60.0337 48.7041C62.6176 48.7041 64.7203 48.1974 66.3416 47.1841C67.9629 46.1201 69.0016 44.8281 69.4576 43.3082H79.1854C78.5774 46.1455 77.4121 48.6281 75.6895 50.7561C73.9668 52.884 71.7629 54.5307 69.0776 55.696C66.4429 56.8613 63.4283 57.444 60.0337 57.444Z" fill="#EAEAEA"/>
<path d="M86.3543 56V43.8402H98.2101V56H86.3543Z" fill="#34C3DD"/>
</svg>
